<svg xmlns="http://www.w3.org/2000/svg" width="212.18" height="35" viewBox="0 0 212.18 35"><rect class="svg__rect" x="0" y="0" width="117.03" height="35" fill="#F2AA24"/><rect class="svg__rect" x="115.03" y="0" width="97.15" height="35" fill="#EC9011"/><path class="svg__text" d="M17.33 22L14.22 22L14.22 13.47L17.14 13.47Q18.59 13.47 19.34 14.05Q20.10 14.63 20.10 15.78L20.10 15.78Q20.10 16.36 19.78 16.83Q19.47 17.30 18.86 17.56L18.86 17.56Q19.55 17.75 19.93 18.26Q20.31 18.78 20.31 19.51L20.31 19.51Q20.31 20.71 19.53 21.36Q18.76 22 17.33 22L17.33 22ZM15.70 18.15L15.70 20.82L17.35 20.82Q18.04 20.82 18.44 20.47Q18.83 20.13 18.83 19.51L18.83 19.51Q18.83 18.18 17.47 18.15L17.47 18.15L15.70 18.15ZM15.70 14.66L15.70 17.06L17.15 17.06Q17.84 17.06 18.23 16.75Q18.62 16.43 18.62 15.86L18.62 15.86Q18.62 15.23 18.26 14.95Q17.90 14.66 17.14 14.66L17.14 14.66L15.70 14.66ZM24.64 19.16L24.64 19.16L24.64 13.47L26.12 13.47L26.12 19.18Q26.12 20.03 26.55 20.48Q26.98 20.93 27.83 20.93L27.83 20.93Q29.54 20.93 29.54 19.13L29.54 19.13L29.54 13.47L31.02 13.47L31.02 19.17Q31.02 20.53 30.15 21.32Q29.28 22.12 27.83 22.12L27.83 22.12Q26.36 22.12 25.50 21.33Q24.64 20.55 24.64 19.16ZM37.15 22L35.67 22L35.67 13.47L37.15 13.47L37.15 22ZM47.32 22L41.96 22L41.96 13.47L43.44 13.47L43.44 20.82L47.32 20.82L47.32 22ZM53.12 14.66L50.49 14.66L50.49 13.47L57.25 13.47L57.25 14.66L54.59 14.66L54.59 22L53.12 22L53.12 14.66ZM68.37 22L66.40 13.47L67.87 13.47L69.20 19.88L70.82 13.47L72.07 13.47L73.68 19.89L74.99 13.47L76.46 13.47L74.49 22L73.07 22L71.45 15.77L69.79 22L68.37 22ZM82.10 22L80.62 22L80.62 13.47L82.10 13.47L82.10 22ZM88.59 14.66L85.95 14.66L85.95 13.47L92.72 13.47L92.72 14.66L90.06 14.66L90.06 22L88.59 22L88.59 14.66ZM97.96 22L96.48 22L96.48 13.47L97.96 13.47L97.96 17.02L101.77 17.02L101.77 13.47L103.25 13.47L103.25 22L101.77 22L101.77 18.21L97.96 18.21L97.96 22Z" fill="#FFFFFF"/><path class="svg__text" d="M133.19 22L129.22 22L129.22 13.60L133.19 13.60Q134.57 13.60 135.64 14.12Q136.71 14.63 137.30 15.58Q137.88 16.53 137.88 17.80L137.88 17.80Q137.88 19.07 137.30 20.02Q136.71 20.97 135.64 21.48Q134.57 22 133.19 22L133.19 22ZM131.60 15.50L131.60 20.10L133.10 20.10Q134.17 20.10 134.83 19.49Q135.48 18.88 135.48 17.80L135.48 17.80Q135.48 16.72 134.83 16.11Q134.17 15.50 133.10 15.50L133.10 15.50L131.60 15.50ZM142.54 18.26L142.54 18.26L142.54 13.60L144.92 13.60L144.92 18.19Q144.92 20.20 146.51 20.20L146.51 20.20Q148.10 20.20 148.10 18.19L148.10 18.19L148.10 13.60L150.44 13.60L150.44 18.26Q150.44 20.13 149.40 21.15Q148.36 22.17 146.49 22.17L146.49 22.17Q144.62 22.17 143.58 21.15Q142.54 20.13 142.54 18.26ZM162.27 22L155.53 22L155.53 13.60L162.12 13.60L162.12 15.44L157.88 15.44L157.88 16.85L161.61 16.85L161.61 18.63L157.88 18.63L157.88 20.17L162.27 20.17L162.27 22ZM169.41 22L167.08 22L167.08 13.60L169.03 13.60L172.74 18.07L172.74 13.60L175.07 13.60L175.07 22L173.12 22L169.41 17.52L169.41 22ZM184.20 22L180.23 22L180.23 13.60L184.20 13.60Q185.59 13.60 186.65 14.12Q187.72 14.63 188.31 15.58Q188.90 16.53 188.90 17.80L188.90 17.80Q188.90 19.07 188.31 20.02Q187.72 20.97 186.65 21.48Q185.59 22 184.20 22L184.20 22ZM182.61 15.50L182.61 20.10L184.11 20.10Q185.19 20.10 185.84 19.49Q186.49 18.88 186.49 17.80L186.49 17.80Q186.49 16.72 185.84 16.11Q185.19 15.50 184.11 15.50L184.11 15.50L182.61 15.50ZM200.37 22L193.62 22L193.62 13.60L200.22 13.60L200.22 15.44L195.98 15.44L195.98 16.85L199.71 16.85L199.71 18.63L195.98 18.63L195.98 20.17L200.37 20.17L200.37 22Z" fill="#FFFFFF" x="128.03"/></svg>